Coordinates
version=1
nRows=11
nColumns=40
inDegrees=yes

Units are S.I. units (second, meters, Newtons, ...)
If the header above contains a line with 'inDegrees', this indicates whether rotational values are in degrees (yes) or radians (no).

endheader
time	pelvis_tilt	pelvis_list	pelvis_rotation	pelvis_tx	pelvis_ty	pelvis_tz	hip_flexion_r	hip_adduction_r	hip_rotation_r	knee_angle_r	knee_angle_r_beta	ankle_angle_r	subtalar_angle_r	mtp_angle_r	hip_flexion_l	hip_adduction_l	hip_rotation_l	knee_angle_l	knee_angle_l_beta	ankle_angle_l	subtalar_angle_l	mtp_angle_l	lumbar_extension	lumbar_bending	lumbar_rotation	arm_flex_r	arm_add_r	arm_rot_r	elbow_flex_r	pro_sup_r	wrist_flex_r	wrist_dev_r	arm_flex_l	arm_add_l	arm_rot_l	elbow_flex_l	pro_sup_l	wrist_flex_l	wrist_dev_l
      0.76000000	      4.49989731	     -8.77377687	     89.43492137	      0.19999046	      0.92391781	     -0.34093676	     23.20522756	      8.49473967	     -6.02337637	     18.02178397	      0.31453947	      2.68391896	      0.00000000	      0.00000000	     24.60247214	     -8.32500499	     -0.26804085	     65.25099540	      1.13884471	     -3.88896031	      0.00000000	      0.00000000	     -0.62733913	      4.84858605	     -2.62973631	      0.00000000	      0.00000000	      0.00000000	      0.00000000	      0.00000000	      0.00000000	      0.00000000	      0.00000000	      0.00000000	      0.00000000	      0.00000000	      0.00000000	      0.00000000	      0.00000000
      0.77000000	      4.57553228	     -8.73245395	     89.36081721	      0.20113114	      0.92737635	     -0.35828941	     20.99665074	      8.82703138	     -5.34086269	     16.28158903	      0.28416734	      2.61978331	      0.00000000	      0.00000000	     26.55630195	     -8.39213723	     -0.36868730	     64.05274531	      1.11793130	     -2.39387424	      0.00000000	      0.00000000	     -0.85186876	      4.84911985	     -2.36395897	      0.00000000	      0.00000000	      0.00000000	      0.00000000	      0.00000000	      0.00000000	      0.00000000	      0.00000000	      0.00000000	      0.00000000	      0.00000000	      0.00000000	      0.00000000	      0.00000000
      0.78000000	      4.31005211	     -8.93845588	     89.30724261	      0.20196843	      0.93009460	     -0.37548396	     19.32669856	      8.66771338	     -5.03507409	     15.05796175	      0.26281101	      3.08662459	      0.00000000	      0.00000000	     28.57584362	     -8.02396001	     -0.56322405	     62.29219645	      1.08720393	     -1.55356061	      0.00000000	      0.00000000	     -0.76556529	      4.46626228	     -2.10715272	      0.00000000	      0.00000000	      0.00000000	      0.00000000	      0.00000000	      0.00000000	      0.00000000	      0.00000000	      0.00000000	      0.00000000	      0.00000000	      0.00000000	      0.00000000	      0.00000000
      0.79000000	      4.14622909	     -8.93426290	     89.18626224	      0.20295462	      0.93275526	     -0.39297142	     17.25035464	      8.68111139	     -4.50156495	     13.49651456	      0.23555862	      3.11027231	      0.00000000	      0.00000000	     30.10977403	     -7.83119805	     -0.89223499	     60.00957456	      1.04736466	     -0.82404061	      0.00000000	      0.00000000	     -0.88081435	      4.16658662	     -1.73050343	      0.00000000	      0.00000000	      0.00000000	      0.00000000	      0.00000000	      0.00000000	      0.00000000	      0.00000000	      0.00000000	      0.00000000	      0.00000000	      0.00000000	      0.00000000	      0.00000000
      0.80000000	      3.98459601	     -8.83345185	     89.02668584	      0.20379176	      0.93508073	     -0.41058734	     15.05124316	      8.65962637	     -4.04097202	     11.89468339	      0.20760139	      3.09609394	      0.00000000	      0.00000000	     31.31590695	     -7.64032010	     -1.28476073	     57.26951139	      0.99954153	     -0.34218489	      0.00000000	      0.00000000	     -1.13116020	      3.93019957	     -1.29326959	      0.00000000	      0.00000000	      0.00000000	      0.00000000	      0.00000000	      0.00000000	      0.00000000	      0.00000000	      0.00000000	      0.00000000	      0.00000000	      0.00000000	      0.00000000	      0.00000000
      0.81000000	      3.78900615	     -8.87584348	     88.85069680	      0.20457604	      0.93662072	     -0.42822871	     13.09140844	      8.58716303	     -3.58378292	     10.44916218	      0.18237228	      3.23738882	      0.00000000	      0.00000000	     32.50678596	     -7.38365869	     -1.67570464	     54.16488136	      0.94535552	      0.00935839	      0.00000000	      0.00000000	     -1.18629473	      3.64810651	     -0.87023372	      0.00000000	      0.00000000	      0.00000000	      0.00000000	      0.00000000	      0.00000000	      0.00000000	      0.00000000	      0.00000000	      0.00000000	      0.00000000	      0.00000000	      0.00000000	      0.00000000
      0.82000000	      3.61644978	     -8.92570387	     88.63535691	      0.20532807	      0.93756766	     -0.44599562	     11.14942504	      8.53235413	     -3.11722107	      9.02439107	      0.15750534	      3.36750872	      0.00000000	      0.00000000	     33.52237820	     -7.15424000	     -2.09167992	     50.70710773	      0.88500598	      0.23313648	      0.00000000	      0.00000000	     -1.21241153	      3.40445960	     -0.39969503	      0.00000000	      0.00000000	      0.00000000	      0.00000000	      0.00000000	      0.00000000	      0.00000000	      0.00000000	      0.00000000	      0.00000000	      0.00000000	      0.00000000	      0.00000000	      0.00000000
      0.83000000	      3.44915095	     -9.06590844	     88.37586841	      0.20607353	      0.93780093	     -0.46382955	      9.35454001	      8.48047627	     -2.58814136	      7.69377535	      0.13428171	      3.53042707	      0.00000000	      0.00000000	     34.46821531	     -6.93079052	     -2.51300946	     46.92731098	      0.81903609	      0.32624384	      0.00000000	      0.00000000	     -1.12154360	      3.18012199	      0.09412825	      0.00000000	      0.00000000	      0.00000000	      0.00000000	      0.00000000	      0.00000000	      0.00000000	      0.00000000	      0.00000000	      0.00000000	      0.00000000	      0.00000000	      0.00000000	      0.00000000
      0.84000000	      3.36324333	     -9.03664082	     88.08059204	      0.20678395	      0.93762439	     -0.48198714	      7.31298387	      8.49529092	     -2.12496564	      6.26802606	      0.10939769	      3.68018264	      0.00000000	      0.00000000	     35.07113825	     -6.80732424	     -2.97413662	     42.89245403	      0.74861455	      0.43343653	      0.00000000	      0.00000000	     -1.19847772	      3.06209223	      0.72309586	      0.00000000	      0.00000000	      0.00000000	      0.00000000	      0.00000000	      0.00000000	      0.00000000	      0.00000000	      0.00000000	      0.00000000	      0.00000000	      0.00000000	      0.00000000	      0.00000000
      0.85000000	      3.31402403	     -9.10511160	     87.73559469	      0.20753430	      0.93668642	     -0.50018849	      5.44102970	      8.53889817	     -1.63131491	      4.98752323	      0.08704870	      3.87132058	      0.00000000	      0.00000000	     35.64748783	     -6.71842094	     -3.40668047	     38.62675273	      0.67416401	      0.46077610	      0.00000000	      0.00000000	     -1.17120658	      2.99103945	      1.34857200	      0.00000000	      0.00000000	      0.00000000	      0.00000000	      0.00000000	      0.00000000	      0.00000000	      0.00000000	      0.00000000	      0.00000000	      0.00000000	      0.00000000	      0.00000000	      0.00000000
      0.86000000	      3.33106915	     -9.22655919	     87.37909862	      0.20824666	      0.93503273	     -0.51853266	      3.64310586	      8.63373914	     -1.11743494	      3.76127403	      0.06564662	      4.16631534	      0.00000000	      0.00000000	     36.16850207	     -6.67997607	     -3.79195289	     34.20263481	      0.59694859	      0.53783714	      0.00000000	      0.00000000	     -1.05719667	      3.00661262	      2.01047211	      0.00000000	      0.00000000	      0.00000000	      0.00000000	      0.00000000	      0.00000000	      0.00000000	      0.00000000	      0.00000000	      0.00000000	      0.00000000	      0.00000000	      0.00000000	      0.00000000
